PathFileType	4	(X/Y/Z)	 s08c0001.trc
DataRate	CameraRate	NumFrames	NumMarkers	Units	OrigDataRate	OrigDataStartFrame	OrigNumFrames
200	200	6	49	mm	200	501	2000
Frame#	Time	racr			lacr			c7			jug			rlel			rdr			llel			ldr			s2			lic			ric			lasi			rasi			rpsi			lpsi			rgt			lgt			rth1			rth2			rth3			rth4			rlfc			rmfc			rsh1			rsh2			rsh3			rsh4			rlmal			rmmal			rcal			rtoe			rmt5			rmt1			lth1			lth2			lth4			lth3			llfc			lmfc			llmal			lmmal			lcal			lmt1			lmt5			lsh1			lsh2			lsh3			lsh4			ltoe			
		X1	Y1	Z1	X2	Y2	Z2	X3	Y3	Z3	X4	Y4	Z4	X5	Y5	Z5	X6	Y6	Z6	X7	Y7	Z7	X8	Y8	Z8	X9	Y9	Z9	X10	Y10	Z10	X11	Y11	Z11	X12	Y12	Z12	X13	Y13	Z13	X14	Y14	Z14	X15	Y15	Z15	X16	Y16	Z16	X17	Y17	Z17	X18	Y18	Z18	X19	Y19	Z19	X20	Y20	Z20	X21	Y21	Z21	X22	Y22	Z22	X23	Y23	Z23	X24	Y24	Z24	X25	Y25	Z25	X26	Y26	Z26	X27	Y27	Z27	X28	Y28	Z28	X29	Y29	Z29	X30	Y30	Z30	X31	Y31	Z31	X32	Y32	Z32	X33	Y33	Z33	X34	Y34	Z34	X35	Y35	Z35	X36	Y36	Z36	X37	Y37	Z37	X38	Y38	Z38	X39	Y39	Z39	X40	Y40	Z40	X41	Y41	Z41	X42	Y42	Z42	X43	Y43	Z43	X44	Y44	Z44	X45	Y45	Z45	X46	Y46	Z46	X47	Y47	Z47	X48	Y48	Z48	X49	Y49	Z49	
501	2.5050	416.024364	1528.998248	596.827937	403.320305	1545.128573	200.344396	356.988291	1583.603039	397.719391	487.937102	1488.034458	395.562481	375.528331	1235.544377	681.922518	449.424886	958.855803	793.600758	381.981967	1245.168946	99.096685	439.085384	974.123058	-6.306477	325.062742	1027.992633	404.369411	467.916397	1094.527644	237.747895	476.525253	1100.183563	555.908657	520.278701	1037.041121	269.604874	533.150063	1034.010260	521.173478	346.630411	1067.587589	452.022992	345.194468	1075.487531	352.591005	420.703211	955.495696	577.361649	424.895780	943.846066	211.989212	433.792711	804.271337	593.294893	455.530750	718.435210	588.799748	492.544651	719.231181	580.583218	432.312611	635.040562	578.541112	436.436541	512.213074	559.598599	420.721847	500.065247	456.141420	397.346358	387.197078	593.871524	420.572819	301.282614	576.222982	397.569325	218.206876	569.543751	447.098221	306.071393	546.162907	392.388855	97.726651	555.711304	407.304320	122.417941	470.069635	321.387160	65.405573	507.933697	612.023249	79.079744	510.660443	535.368087	47.899729	577.134129	538.646526	47.798751	464.041515	441.835151	815.258651	189.753297	461.362266	730.116123	193.394806	497.675334	730.895404	201.751334	434.363573	645.674237	196.297719	429.280874	519.945619	217.394641	434.349102	496.621733	315.430822	381.834754	107.000245	221.613574	411.977869	126.483991	301.775054	325.095274	74.211700	264.405313	541.920313	47.243243	295.873133	528.739560	43.047951	181.164167	407.708202	394.198184	190.634665	421.638946	310.859325	207.831708	393.117180	226.549202	207.285774	443.082941	313.352671	240.234636	610.474529	81.726888	243.142378	
502	2.5100	415.985026	1529.007789	596.818969	403.283050	1545.122203	200.347557	356.961354	1583.602061	397.713994	487.909065	1488.041751	395.537272	375.513644	1235.542531	681.909052	449.391478	958.874649	793.585031	381.950906	1245.149077	99.092544	439.054518	974.111496	-6.302402	325.062233	1027.999510	404.362180	467.896119	1094.506544	237.755203	476.505830	1100.184049	555.917866	520.255074	1037.047061	269.614220	533.140218	1034.033274	521.171018	346.609034	1067.591801	452.030296	345.194475	1075.487554	352.591008	420.693387	955.491337	577.363473	424.893607	943.856205	211.996215	433.786076	804.266180	593.293523	455.496112	718.448572	588.814239	492.534247	719.243652	580.594166	432.296407	635.046314	578.531281	436.351296	512.130036	559.605618	420.705631	500.055413	456.140527	397.323370	387.200288	593.877337	420.556847	301.294424	576.230713	397.574435	218.209572	569.543495	447.099344	306.073252	546.164592	392.385101	97.740857	555.720160	407.296900	122.414418	470.068725	321.386248	65.397739	507.927653	612.038126	79.071359	510.673352	535.369062	47.899775	577.144974	538.671055	47.788073	464.057993	441.822617	815.265494	189.745858	461.348682	730.115014	193.438957	497.642494	730.902154	201.733699	434.347921	645.670656	196.308029	429.241633	519.949154	217.399987	434.322195	496.627897	315.429938	381.807222	106.994412	221.608500	411.977871	126.483999	301.775046	325.092597	74.201822	264.409574	541.921270	47.271843	295.870654	528.728003	43.059427	181.185966	407.690895	394.199631	190.626488	421.618576	310.858028	207.836927	393.111307	226.552845	207.286318	443.080175	313.357903	240.227772	610.460809	81.729308	243.132616	
503	2.5150	415.977322	1529.006889	596.806674	403.258029	1545.118228	200.337496	356.933995	1583.600391	397.706564	487.878320	1488.030945	395.547605	375.498976	1235.531011	681.913226	449.383517	958.871345	793.601519	381.919350	1245.150353	99.094585	439.011447	974.091693	-6.307546	325.040714	1028.004187	404.375231	467.856770	1094.524303	237.748148	476.480197	1100.193476	555.912221	520.241477	1037.050983	269.613662	533.138664	1034.020290	521.174052	346.582178	1067.606623	452.050473	345.168358	1075.490325	352.589514	420.686063	955.484481	577.365294	424.878515	943.855632	211.985105	433.770501	804.272007	593.303657	455.481144	718.447249	588.832195	492.511337	719.232218	580.585919	432.287795	635.045039	578.542375	436.344310	512.140574	559.613757	420.685461	500.063922	456.127502	397.307902	387.200743	593.877661	420.536053	301.293570	576.227325	397.564542	218.216202	569.549645	447.047500	306.061970	546.145579	392.393794	97.731965	555.710242	407.239187	122.431477	470.063761	321.398542	65.404989	507.949481	612.027723	79.071398	510.663237	535.369065	47.899792	577.144945	538.676392	47.813780	464.056046	441.814485	815.260331	189.772412	461.330562	730.137000	193.388293	497.611107	730.885146	201.751934	434.349320	645.670022	196.308535	429.384819	520.014080	217.384648	434.320858	496.629881	315.427150	381.803508	107.013374	221.609429	411.952789	126.479936	301.796894	325.100986	74.197701	264.404749	541.920330	47.243962	295.872371	528.705925	43.065115	181.171834	407.690648	394.199419	190.626226	421.613961	310.857433	207.853181	393.117069	226.549464	207.285035	443.056676	313.358111	240.218673	610.480375	81.729937	243.141515	
504	2.5200	415.950796	1528.996291	596.798852	403.204027	1545.094246	200.348725	356.914481	1583.611086	397.668494	487.848315	1488.035356	395.536945	375.465491	1235.536662	681.911424	449.365863	958.870281	793.598769	381.881420	1245.129408	99.095606	438.958932	974.085748	-6.314404	325.034269	1027.991301	404.365431	467.815528	1094.535962	237.751977	476.465342	1100.195738	555.917658	520.221805	1037.052182	269.606555	533.111462	1034.046069	521.195675	346.571110	1067.585418	452.059500	345.167463	1075.482865	352.593912	420.670766	955.488068	577.364450	424.863872	943.850227	211.989174	433.737899	804.276264	593.308632	455.459541	718.449013	588.850850	492.482402	719.241299	580.594776	432.284752	635.046382	578.536636	436.318687	512.121306	559.606621	420.676023	500.054780	456.151042	397.287561	387.201931	593.883807	420.533968	301.277679	576.220753	397.526960	218.213502	569.525393	447.059398	306.056262	546.154637	392.391632	97.753350	555.713284	407.292374	122.430430	470.061439	321.384296	65.399771	507.934998	612.040227	79.082996	510.668740	535.359158	47.909439	577.143116	538.642414	47.803698	464.063530	441.795655	815.269177	189.771427	461.322398	730.104433	193.415751	497.620800	730.870435	201.773041	434.332962	645.663542	196.312057	429.197350	519.929681	217.376241	434.309705	496.631393	315.432712	381.805383	106.990308	221.611429	411.959834	126.496129	301.792295	325.106327	74.191862	264.416090	541.910898	47.258134	295.873848	528.713586	43.073880	181.182088	407.658347	394.215856	190.631946	421.610960	310.864355	207.840008	393.111221	226.552896	207.286335	443.051523	313.374342	240.201491	610.474061	81.725172	243.128646	
505	2.5250	415.923167	1529.005117	596.791630	403.180561	1545.112055	200.340325	356.876704	1583.604163	397.697310	487.831964	1488.017261	395.526756	375.442352	1235.559596	681.907357	449.340872	958.874838	793.597898	381.827367	1245.115707	99.114845	438.929001	974.069632	-6.316904	325.023247	1027.992432	404.373882	467.823504	1094.493238	237.759665	476.449634	1100.190715	555.918418	520.201602	1037.042050	269.621527	533.089252	1034.024415	521.183058	346.554066	1067.599591	452.050841	345.174274	1075.456542	352.615562	420.643166	955.496530	577.374544	424.839528	943.845122	212.000943	433.721859	804.276654	593.313262	455.430556	718.446370	588.848554	492.465201	719.247656	580.613006	432.262732	635.052659	578.526685	436.317102	512.120476	559.619415	420.673452	500.075837	456.140027	397.301562	387.208261	593.882567	420.537573	301.291785	576.225887	397.539901	218.220421	569.534644	447.086470	306.077897	546.191580	392.400326	97.744457	555.703366	407.291546	122.441933	470.051372	321.384646	65.400741	507.934607	612.031125	79.077602	510.674709	535.360521	47.917719	577.148326	538.663611	47.814992	464.066470	441.790299	815.249052	189.785151	461.319928	730.116313	193.425923	497.582332	730.880314	201.772953	434.317592	645.663837	196.318924	429.196919	519.922205	217.354765	434.287062	496.630448	315.433344	381.798954	106.997116	221.616329	411.965484	126.490466	301.818190	325.099291	74.193063	264.411393	541.935005	47.266360	295.855368	528.744825	43.052546	181.179783	407.678827	394.187342	190.641072	421.609853	310.849625	207.835760	393.087164	226.547326	207.287719	443.049882	313.368667	240.215677	610.468318	81.746636	243.148873	
506	2.5300	415.901028	1528.985731	596.797534	403.158513	1545.090695	200.327154	356.824970	1583.582640	397.689829	487.801544	1488.013801	395.516978	375.398052	1235.548179	681.910683	449.315226	958.862301	793.591120	381.786222	1245.112410	99.112590	438.878578	974.053441	-6.307613	325.017256	1027.988283	404.388639	467.825958	1094.491162	237.755093	476.430340	1100.191267	555.924461	520.179686	1037.038849	269.604823	533.089092	1034.036209	521.203309	346.531574	1067.591631	452.065316	345.152454	1075.457627	352.632780	420.630484	955.493074	577.365417	424.822982	943.850191	211.974342	433.716948	804.264037	593.314804	455.423226	718.463081	588.852785	492.459513	719.255808	580.611877	432.265072	635.042975	578.528956	436.296286	512.130517	559.613126	420.672810	500.064218	456.149082	397.277237	387.212804	593.890265	420.541314	301.290522	576.218813	397.525347	218.206275	569.541897	447.069777	306.072254	546.177789	392.402083	97.729678	555.729195	407.285103	122.420599	470.088400	321.402864	65.392681	507.945664	612.040533	79.096241	510.673286	535.381831	47.912857	577.156892	538.656714	47.803318	464.058751	441.768623	815.251525	189.753895	461.322188	730.104253	193.415469	497.589673	730.868579	201.783230	434.304379	645.659170	196.325982	429.170736	519.920157	217.372274	434.275294	496.618229	315.430724	381.811348	106.991859	221.612505	411.972529	126.506660	301.813591	325.105331	74.201036	264.419842	541.930498	47.263008	295.888473	528.693839	43.062541	181.179647	407.668231	394.200479	190.640468	421.584543	310.856852	207.840804	393.077894	226.557210	207.278515	443.052079	313.373693	240.201898	610.464620	81.756437	243.152748	
